::General::
Complete name: Abraham Lincoln Vampire Hunter 2012 720p BrRip x264 [Dual-Audio] Eng-Hin NimitMak SilverRG
Director: Timur Bekmambetov
Format: MPEG-4
File size: 744 MiB
Duration: 1h 45mn
Overall Bitrate: 990 Kbps
Language: Dual Audio [English-Hindi]
Sub Title: English (Embedded)+ .srt Included
Encoded date: 2012-11-10
Writing application: MeGui
Writing library: x264 core 100 r1659 57b2e56
Encoder: NimitMak
Source: 720p BluRay x264 DTS-HDChina (Thanks)

::IMDB INFO::
IMDB Link:http://www.imdb.com/title/tt1611224/
IMDB Rating:6.0/10
Release Date:13 July 2012 (India)
Genre: Action | Fantasy | Horror
YouTube

::Video::
ID: 1
Format: AVC
Format/Info: Advanced Video Codec
Format profile: High@L4.0
Format settings, CABAC: Yes
Format settings, ReFrames: 11 frames
Codec ID: V_MPEG4/ISO/AVC
Nominal Bitrate: 904 Kbps/11.0 Mbps (Max)
Width: 1280 pixels
Height: 528 pixels
Display aspect ratio: 2.40:1
Frame rate: 23.976 fps
Color space: YUV
Chroma subsampling: 4:2:0
Bit depth: 8 bits
Scan type: Progressive
Writing library: x264 core 100 r1659 57b2e56

::Audio #1::
ID: 2
Format: AAC
Format/Info: Advanced Audio Codec
Format profile: HE-AAC / LC
Codec ID: 40
Duration: 1h 45mn
Bit rate mode: Variable
Bit rate: 41.9 Kbps
Maximum bit rate: 55.7 Kbps
Channel(s): 2 channels
Channel positions: Front: L R
Sampling rate: 22.05 KHz / 11.025 KHz
Compression mode : Lossy
Stream size: 31.5 MiB (4%)
Title: English - NimitMak SilverRG
Language: English

::Audio #2::
ID: 3
Format: AAC
Format/Info: Advanced Audio Codec
Format profile: HE-AAC / LC
Codec ID : 40
Duration: 1h 44mn
Bit rate mode: Variable
Bit rate: 42.0 Kbps
Maximum bit rat: 51.7 Kbps
Channel(s) : 2 channels
Channel positions: Front: L R
Sampling rate: 22.05 KHz / 11.025 KHz
Compression mode: Lossy
Stream size: 31.5 MiB (4%)
Title : Hindi - NimitMak SilverRG
Language: Hindi

::Text #1::
ID: 4
Format: Timed text
Codec ID: tx3g
Duration: 1h 37mn
Bit rate mode: Variable
Bit rate: 51 bps
Stream size: 36.9 KiB (0%)
Title: English - NimitMak SilverRG
Language: English

::Cast::
Benjamin Walker, Rufus Sewell, Dominic Cooper, Anthony Mackie, Mary Elizabeth Winstead.

::Plot::
Abraham Lincoln, the 16th President of the United States, discovers vampires are planning to take over the United States.
He makes it his mission to eliminate them.

Screens : 